<svg width="21" height="19" viewBox="0 0 21 19" fill="none" xmlns="http://www.w3.org/2000/svg">
<path fill-rule="evenodd" clip-rule="evenodd" d="M7.5 0.75C7.5 0.335786 7.83579 0 8.25 0H12.25C12.6642 0 13 0.335786 13 0.75V4.00002H19.75C20.1642 4.00002 20.5 4.33581 20.5 4.75002V8.75002C20.5 9.16423 20.1642 9.50002 19.75 9.50002H0.75C0.335786 9.50002 0 9.16423 0 8.75002V4.75002C0 4.33581 0.335786 4.00002 0.75 4.00002H7.5V0.75ZM9 1.5V4.75002C9 5.16423 8.66421 5.50002 8.25 5.50002H1.5V8.00002H19V5.50002H12.25C11.8358 5.50002 11.5 5.16423 11.5 4.75002V1.5H9Z" fill="#212121"/>
<path fill-rule="evenodd" clip-rule="evenodd" d="M1.5 8.79297C1.5 8.37876 1.83579 8.04297 2.25 8.04297H18.25C18.6642 8.04297 19 8.37876 19 8.79297V17.793C19 18.2072 18.6642 18.543 18.25 18.543H2.25C1.83579 18.543 1.5 18.2072 1.5 17.793V8.79297ZM3 9.54297V17.043H17.5V9.54297H3Z" fill="#212121"/>
<path fill-rule="evenodd" clip-rule="evenodd" d="M6.25 14C6.66421 14 7 14.3358 7 14.75V17.7417C7 18.156 6.66421 18.4917 6.25 18.4917C5.83579 18.4917 5.5 18.156 5.5 17.7417V14.75C5.5 14.3358 5.83579 14 6.25 14Z" fill="#212121"/>
<path fill-rule="evenodd" clip-rule="evenodd" d="M10.25 13.9922C10.6642 13.9922 11 14.328 11 14.7422V17.7422C11 18.1564 10.6642 18.4922 10.25 18.4922C9.83579 18.4922 9.5 18.1564 9.5 17.7422V14.7422C9.5 14.328 9.83579 13.9922 10.25 13.9922Z" fill="#212121"/>
<path fill-rule="evenodd" clip-rule="evenodd" d="M14.25 14C14.6642 14 15 14.3358 15 14.75V17.7417C15 18.156 14.6642 18.4917 14.25 18.4917C13.8358 18.4917 13.5 18.156 13.5 17.7417V14.75C13.5 14.3358 13.8358 14 14.25 14Z" fill="#212121"/>
<path fill-rule="evenodd" clip-rule="evenodd" d="M3.5 17.793C3.5 17.3788 3.83579 17.043 4.25 17.043H16.25C16.6642 17.043 17 17.3788 17 17.793C17 18.2072 16.6642 18.543 16.25 18.543H4.25C3.83579 18.543 3.5 18.2072 3.5 17.793Z" fill="#212121"/>
</svg>
